<svg width="18" height="19" viewBox="0 0 18 19" fill="none" xmlns="http://www.w3.org/2000/svg">
<path d="M11.6849 9.50141C11.6849 10.9864 10.4849 12.1864 8.99994 12.1864C7.51494 12.1864 6.31494 10.9864 6.31494 9.50141C6.31494 8.01641 7.51494 6.81641 8.99994 6.81641C10.4849 6.81641 11.6849 8.01641 11.6849 9.50141Z" stroke="#9F9FA0" stroke-width="1.5" stroke-linecap="round" stroke-linejoin="round"/>
<path d="M8.99988 15.7016C11.6474 15.7016 14.1149 14.1416 15.8324 11.4416C16.5074 10.3841 16.5074 8.60656 15.8324 7.54906C14.1149 4.84906 11.6474 3.28906 8.99988 3.28906C6.35238 3.28906 3.88488 4.84906 2.16738 7.54906C1.49238 8.60656 1.49238 10.3841 2.16738 11.4416C3.88488 14.1416 6.35238 15.7016 8.99988 15.7016Z" stroke="#9F9FA0" stroke-width="1.5" stroke-linecap="round" stroke-linejoin="round"/>
</svg>
