<svg width="18" height="18" viewBox="0 0 18 18" fill="none" xmlns="http://www.w3.org/2000/svg">
<path d="M10.8974 7.10391L7.10244 10.8989C6.61494 10.4114 6.31494 9.74391 6.31494 9.00141C6.31494 7.51641 7.51494 6.31641 8.99994 6.31641C9.74244 6.31641 10.4099 6.61641 10.8974 7.10391Z" stroke="#9B9B9B" stroke-width="1.5" stroke-linecap="round" stroke-linejoin="round"/>
<path d="M13.3649 4.32687C12.0524 3.33687 10.5524 2.79688 8.99988 2.79688C6.35238 2.79688 3.88488 4.35687 2.16738 7.05687C1.49238 8.11437 1.49238 9.89188 2.16738 10.9494C2.75988 11.8794 3.44988 12.6819 4.19988 13.3269" stroke="#9B9B9B" stroke-width="1.5" stroke-linecap="round" stroke-linejoin="round"/>
<path d="M6.31494 14.6492C7.16994 15.0092 8.07744 15.2042 8.99994 15.2042C11.6474 15.2042 14.1149 13.6442 15.8324 10.9442C16.5074 9.88672 16.5074 8.10922 15.8324 7.05172C15.5849 6.66172 15.3149 6.29422 15.0374 5.94922" stroke="#9B9B9B" stroke-width="1.5" stroke-linecap="round" stroke-linejoin="round"/>
<path d="M11.6326 9.52344C11.4376 10.5809 10.5751 11.4434 9.51758 11.6384" stroke="#9B9B9B" stroke-width="1.5" stroke-linecap="round" stroke-linejoin="round"/>
<path d="M7.1025 10.8984L1.5 16.5009" stroke="#9B9B9B" stroke-width="1.5" stroke-linecap="round" stroke-linejoin="round"/>
<path d="M16.5 1.5L10.8975 7.1025" stroke="#9B9B9B" stroke-width="1.5" stroke-linecap="round" stroke-linejoin="round"/>
</svg>
