<svg width="24" height="25" viewBox="0 0 24 25" fill="none" xmlns="http://www.w3.org/2000/svg">
<path d="M21.3755 17.5826C20.5348 16.6841 18.9612 15.3327 18.9612 10.9062C18.9627 9.31776 18.4072 7.77841 17.3904 6.55304C16.3735 5.32768 14.9589 4.49293 13.3898 4.1924V3.29087C13.3898 3.10903 13.3538 2.92899 13.2838 2.761C13.2138 2.59301 13.1112 2.44037 12.9818 2.31179C12.8525 2.18322 12.6989 2.08123 12.5299 2.01165C12.361 1.94206 12.1798 1.90625 11.9969 1.90625C11.814 1.90625 11.6329 1.94206 11.4639 2.01165C11.2949 2.08123 11.1414 2.18322 11.012 2.31179C10.8827 2.44037 10.7801 2.59301 10.7101 2.761C10.6401 2.92899 10.6041 3.10903 10.6041 3.29087V4.1924C9.03499 4.49293 7.62033 5.32768 6.60347 6.55304C5.58662 7.77841 5.03117 9.31776 5.03267 10.9062C5.03267 15.3327 3.45906 16.6841 2.6184 17.5826C2.37861 17.8368 2.24668 18.1731 2.25006 18.5216C2.25023 18.7038 2.28651 18.8841 2.35683 19.0523C2.42716 19.2205 2.53015 19.3733 2.65991 19.5019C2.78968 19.6305 2.94367 19.7324 3.11309 19.8018C3.2825 19.8711 3.46402 19.9067 3.64725 19.9062H20.3528C20.536 19.9067 20.7175 19.8711 20.887 19.8018C21.0564 19.7324 21.2104 19.6305 21.3401 19.5019C21.4699 19.3733 21.5729 19.2205 21.6432 19.0523C21.7135 18.8841 21.7498 18.7038 21.75 18.5216C21.7517 18.1723 21.6175 17.8358 21.3755 17.5826Z" stroke="white" stroke-width="2"/>
<path d="M10.5 2.65625H13.5V4.15625L12.75 4.98125H12H11.25L10.5 4.15625V2.65625Z" fill="white"/>
<path d="M15 22C15 22.7956 14.6839 23.5587 14.1213 24.1213C13.5587 24.6839 12.7956 25 12 25C11.2044 25 10.4413 24.6839 9.87868 24.1213C9.31607 23.5587 9 22.7956 9 22L12 22H15Z" fill="white"/>
</svg>
