<svg width="100" height="100" viewBox="0 0 100 100" fill="none" xmlns="http://www.w3.org/2000/svg">
<path d="M34.917 50.0013L44.9587 60.0846L65.0837 39.918" stroke="#5080E1" stroke-width="7" stroke-linecap="round" stroke-linejoin="round"/>
<path d="M44.792 10.207C47.667 7.7487 52.3753 7.7487 55.292 10.207L61.8753 15.8737C63.1253 16.957 65.4587 17.832 67.1253 17.832H74.2087C78.6253 17.832 82.2503 21.457 82.2503 25.8737V32.957C82.2503 34.582 83.1253 36.957 84.2087 38.207L89.8753 44.7904C92.3337 47.6654 92.3337 52.3737 89.8753 55.2904L84.2087 61.8737C83.1253 63.1237 82.2503 65.457 82.2503 67.1237V74.207C82.2503 78.6237 78.6253 82.2487 74.2087 82.2487H67.1253C65.5003 82.2487 63.1253 83.1237 61.8753 84.207L55.292 89.8737C52.417 92.332 47.7087 92.332 44.792 89.8737L38.2087 84.207C36.9587 83.1237 34.6253 82.2487 32.9587 82.2487H25.7503C21.3337 82.2487 17.7087 78.6237 17.7087 74.207V67.082C17.7087 65.457 16.8337 63.1237 15.792 61.8737L10.167 55.2487C7.75033 52.3737 7.75033 47.707 10.167 44.832L15.792 38.207C16.8337 36.957 17.7087 34.6237 17.7087 32.9987V25.832C17.7087 21.4154 21.3337 17.7904 25.7503 17.7904H32.9587C34.5837 17.7904 36.9587 16.9154 38.2087 15.832L44.792 10.207Z" stroke="#5080E1" stroke-width="7" stroke-linecap="round" stroke-linejoin="round"/>
</svg>
