<svg width="80" height="80" viewBox="0 0 80 80" fill="none" xmlns="http://www.w3.org/2000/svg">
<path d="M39.9994 6.66797C21.6327 6.66797 6.66602 21.6346 6.66602 40.0013C6.66602 58.368 21.6327 73.3346 39.9994 73.3346C58.366 73.3346 73.3327 58.368 73.3327 40.0013C73.3327 21.6346 58.366 6.66797 39.9994 6.66797ZM37.4993 26.668C37.4993 25.3013 38.6327 24.168 39.9994 24.168C41.366 24.168 42.4994 25.3013 42.4994 26.668V43.3346C42.4994 44.7013 41.366 45.8346 39.9994 45.8346C38.6327 45.8346 37.4993 44.7013 37.4993 43.3346V26.668ZM43.066 54.6013C42.8993 55.0346 42.666 55.368 42.366 55.7013C42.0327 56.0013 41.666 56.2346 41.266 56.4013C40.866 56.568 40.4327 56.668 39.9994 56.668C39.566 56.668 39.1327 56.568 38.7327 56.4013C38.3327 56.2346 37.966 56.0013 37.6327 55.7013C37.3327 55.368 37.0993 55.0346 36.9327 54.6013C36.766 54.2013 36.666 53.768 36.666 53.3346C36.666 52.9013 36.766 52.468 36.9327 52.068C37.0993 51.668 37.3327 51.3013 37.6327 50.968C37.966 50.668 38.3327 50.4346 38.7327 50.268C39.5327 49.9346 40.466 49.9346 41.266 50.268C41.666 50.4346 42.0327 50.668 42.366 50.968C42.666 51.3013 42.8993 51.668 43.066 52.068C43.2327 52.468 43.3327 52.9013 43.3327 53.3346C43.3327 53.768 43.2327 54.2013 43.066 54.6013Z" fill="#5080E1"/>
</svg>
