<svg width="24" height="24" viewBox="0 0 24 24" fill="none" xmlns="http://www.w3.org/2000/svg">
<path d="M21.81 3.94183C20.27 7.78183 16.41 13.0018 13.18 15.5918L11.21 17.1718C10.96 17.3518 10.71 17.5118 10.43 17.6218C10.43 17.4418 10.42 17.2418 10.39 17.0518C10.28 16.2118 9.90002 15.4318 9.23002 14.7618C8.55002 14.0818 7.72002 13.6818 6.87002 13.5718C6.67002 13.5618 6.47002 13.5418 6.27002 13.5618C6.38002 13.2518 6.55002 12.9618 6.76002 12.7218L8.32002 10.7518C10.9 7.52183 16.14 3.64183 19.97 2.11183C20.56 1.89183 21.13 2.05183 21.49 2.42183C21.87 2.79183 22.05 3.36183 21.81 3.94183Z" stroke="white" stroke-linecap="round" stroke-linejoin="round"/>
<path d="M10.43 17.6188C10.43 18.7188 10.01 19.7688 9.22003 20.5688C8.61003 21.1788 7.78003 21.5988 6.79003 21.7288L4.33003 21.9988C2.99003 22.1488 1.84003 21.0088 2.00003 19.6488L2.27003 17.1888C2.51003 14.9988 4.34003 13.5988 6.28003 13.5588C6.48003 13.5488 6.69003 13.5588 6.88003 13.5688C7.73003 13.6788 8.56003 14.0688 9.24003 14.7588C9.91003 15.4288 10.29 16.2088 10.4 17.0488C10.41 17.2388 10.43 17.4288 10.43 17.6188Z" stroke="white" stroke-linecap="round" stroke-linejoin="round"/>
<path d="M14.24 14.4683C14.24 11.8583 12.12 9.73828 9.51001 9.73828" stroke="white" stroke-linecap="round" stroke-linejoin="round"/>
</svg>
