<svg width="18" height="18" viewBox="0 0 18 18" fill="none" xmlns="http://www.w3.org/2000/svg">
<path d="M11.7394 4.97284L4.76444 12.0651C4.53352 12.3199 4.40945 12.6538 4.41791 12.9976C4.42638 13.3414 4.56673 13.6688 4.80991 13.912C5.05309 14.1551 5.38047 14.2955 5.72427 14.304C6.06807 14.3124 6.40196 14.1884 6.65681 13.9574L14.9715 5.52548C15.4334 5.01578 15.6815 4.348 15.6646 3.66039C15.6476 2.97279 15.3669 2.31803 14.8806 1.83167C14.3942 1.34532 13.7395 1.06462 13.0519 1.04769C12.3643 1.03076 11.6965 1.2789 11.1868 1.74073L2.87206 10.1727C2.11923 10.9255 1.69629 11.9466 1.69629 13.0112C1.69629 14.0759 2.11923 15.097 2.87206 15.8498C3.62489 16.6026 4.64596 17.0256 5.71062 17.0256C6.77529 17.0256 7.79635 16.6026 8.54919 15.8498L15.4237 8.99204" stroke="#959595" stroke-linecap="round" stroke-linejoin="round"/>
</svg>
