<svg width="24" height="24" viewBox="0 0 24 24" fill="none" xmlns="http://www.w3.org/2000/svg">
<g clip-path="url(#clip0_570_4599)">
<path d="M8.5 4.29688C9.05 4.29688 9.5 4.74688 9.5 5.29688V8.29688C9.5 8.84688 9.05 9.29688 8.5 9.29688H5.5C4.95 9.29688 4.5 8.84688 4.5 8.29688V5.29688C4.5 4.74688 4.95 4.29688 5.5 4.29688H8.5ZM8.5 2.29688H5.5C3.85 2.29688 2.5 3.64688 2.5 5.29688V8.29688C2.5 9.94688 3.85 11.2969 5.5 11.2969H8.5C10.15 11.2969 11.5 9.94688 11.5 8.29688V5.29688C11.5 3.64688 10.15 2.29688 8.5 2.29688Z" fill="white"/>
<path d="M18.5 4.29688C19.05 4.29688 19.5 4.74688 19.5 5.29688V8.29688C19.5 8.84688 19.05 9.29688 18.5 9.29688H15.5C14.95 9.29688 14.5 8.84688 14.5 8.29688V5.29688C14.5 4.74688 14.95 4.29688 15.5 4.29688H18.5ZM18.5 2.29688H15.5C13.85 2.29688 12.5 3.64688 12.5 5.29688V8.29688C12.5 9.94688 13.85 11.2969 15.5 11.2969H18.5C20.15 11.2969 21.5 9.94688 21.5 8.29688V5.29688C21.5 3.64688 20.15 2.29688 18.5 2.29688Z" fill="white"/>
<path d="M8.5 14.6953C9.05 14.6953 9.5 15.1453 9.5 15.6953V18.6953C9.5 19.2453 9.05 19.6953 8.5 19.6953H5.5C4.95 19.6953 4.5 19.2453 4.5 18.6953V15.6953C4.5 15.1453 4.95 14.6953 5.5 14.6953H8.5ZM8.5 12.6953H5.5C3.85 12.6953 2.5 14.0453 2.5 15.6953V18.6953C2.5 20.3453 3.85 21.6953 5.5 21.6953H8.5C10.15 21.6953 11.5 20.3453 11.5 18.6953V15.6953C11.5 14.0453 10.15 12.6953 8.5 12.6953Z" fill="white"/>
<path d="M18.5 14.6953C19.05 14.6953 19.5 15.1453 19.5 15.6953V18.6953C19.5 19.2453 19.05 19.6953 18.5 19.6953H15.5C14.95 19.6953 14.5 19.2453 14.5 18.6953V15.6953C14.5 15.1453 14.95 14.6953 15.5 14.6953H18.5ZM18.5 12.6953H15.5C13.85 12.6953 12.5 14.0453 12.5 15.6953V18.6953C12.5 20.3453 13.85 21.6953 15.5 21.6953H18.5C20.15 21.6953 21.5 20.3453 21.5 18.6953V15.6953C21.5 14.0453 20.15 12.6953 18.5 12.6953Z" fill="white"/>
</g>
<defs>
<clipPath id="clip0_570_4599">
<rect width="24" height="24" fill="white"/>
</clipPath>
</defs>
</svg>
