<svg width="60" height="60" viewBox="0 0 60 60" fill="none" xmlns="http://www.w3.org/2000/svg">
<circle cx="30" cy="30" r="30" fill="#5080E1"/>
<path d="M28.05 22.5313L22.03 26.4613C20.1 27.7213 20.1 30.5413 22.03 31.8013L28.05 35.7313C29.13 36.4413 30.91 36.4413 31.99 35.7313L37.98 31.8013C39.9 30.5413 39.9 27.7313 37.98 26.4713L31.99 22.5413C30.91 21.8213 29.13 21.8213 28.05 22.5313Z" stroke="white" stroke-width="1.5" stroke-linecap="round" stroke-linejoin="round"/>
<path d="M23.6301 33.0781L23.6201 37.7681C23.6201 39.0381 24.6001 40.3981 25.8001 40.7981L28.9901 41.8581C29.5401 42.0381 30.4501 42.0381 31.0101 41.8581L34.2001 40.7981C35.4001 40.3981 36.3801 39.0381 36.3801 37.7681V33.1281" stroke="white" stroke-width="1.5" stroke-linecap="round" stroke-linejoin="round"/>
<path d="M39.3999 35V29" stroke="white" stroke-width="1.5" stroke-linecap="round" stroke-linejoin="round"/>
</svg>
