<svg width="22" height="21" viewBox="0 0 22 21" fill="none" xmlns="http://www.w3.org/2000/svg">
<path d="M20.3755 17.5826C19.5348 16.6841 17.9612 15.3327 17.9612 10.9062C17.9627 9.31776 17.4072 7.77841 16.3904 6.55304C15.3735 5.32768 13.9589 4.49293 12.3898 4.1924V3.29087C12.3898 3.10903 12.3538 2.92899 12.2838 2.761C12.2138 2.59301 12.1112 2.44037 11.9818 2.31179C11.8525 2.18322 11.6989 2.08123 11.5299 2.01165C11.361 1.94206 11.1798 1.90625 10.9969 1.90625C10.814 1.90625 10.6329 1.94206 10.4639 2.01165C10.2949 2.08123 10.1414 2.18322 10.012 2.31179C9.8827 2.44037 9.7801 2.59301 9.7101 2.761C9.6401 2.92899 9.60408 3.10903 9.60408 3.29087V4.1924C8.03499 4.49293 6.62033 5.32768 5.60347 6.55304C4.58662 7.77841 4.03117 9.31776 4.03267 10.9062C4.03267 15.3327 2.45906 16.6841 1.6184 17.5826C1.37861 17.8368 1.24668 18.1731 1.25006 18.5216C1.25023 18.7038 1.28651 18.8841 1.35683 19.0523C1.42716 19.2205 1.53015 19.3733 1.65991 19.5019C1.78968 19.6305 1.94367 19.7324 2.11309 19.8018C2.2825 19.8711 2.46402 19.9067 2.64725 19.9062H19.3528C19.536 19.9067 19.7175 19.8711 19.887 19.8018C20.0564 19.7324 20.2104 19.6305 20.3401 19.5019C20.4699 19.3733 20.5729 19.2205 20.6432 19.0523C20.7135 18.8841 20.7498 18.7038 20.75 18.5216C20.7517 18.1723 20.6175 17.8358 20.3755 17.5826Z" stroke="#5080E1" stroke-width="2"/>
</svg>
